<?xml version="1.0" standalone="no"?>
<!DOCTYPE svg PUBLIC "-//W3C//DTD SVG 20010904//EN"
 "http://www.w3.org/TR/2001/REC-SVG-20010904/DTD/svg10.dtd">
<svg version="1.0" xmlns="http://www.w3.org/2000/svg"
 width="300.000000pt" height="300.000000pt" viewBox="0 0 300.000000 300.000000"
 preserveAspectRatio="xMidYMid meet">
<metadata>
Created by potrace 1.10, written by Peter Selinger 2001-2011
</metadata>
<g transform="translate(0.000000,300.000000) scale(0.100000,-0.100000)"
fill="#000000" stroke="none">
<path d="M1375 2989 c-201 -11 -369 -59 -565 -160 -405 -209 -695 -595 -781
-1043 -28 -142 -28 -430 0 -572 115 -596 589 -1070 1183 -1185 139 -27 437
-27 576 0 594 115 1068 589 1183 1185 28 142 28 430 0 572 -87 448 -376 834
-782 1044 -257 133 -481 176 -814 159z m318 -34 c655 -86 1176 -607 1262
-1262 19 -144 19 -242 0 -386 -104 -797 -847 -1368 -1641 -1263 -664 88 -1183
604 -1269 1263 -19 144 -19 242 0 386 105 802 844 1367 1648 1262z"/>
<path d="M937 1886 c-132 -332 -337 -881 -337 -904 0 -18 214 -16 228 1 6 7
24 53 40 103 45 139 54 152 104 156 l42 3 31 98 31 97 -22 0 c-36 0 -54 11
-54 32 0 10 36 114 79 231 44 117 84 222 88 235 7 19 25 -19 101 -217 51 -133
92 -245 92 -251 0 -12 -34 -30 -58 -30 -18 0 -17 -7 16 -100 l36 -100 38 0
c47 0 66 -26 105 -148 14 -45 31 -90 38 -99 11 -14 44 -16 281 -18 290 -2 341
4 412 49 151 95 211 325 124 479 -26 47 -89 107 -124 120 -8 2 5 20 35 47 73
65 102 128 102 221 -1 65 -5 85 -30 135 -37 72 -101 123 -194 155 -62 21 -84
23 -386 27 -206 2 -316 0 -310 -6 6 -5 58 -46 116 -89 85 -64 110 -78 124 -70
30 16 303 3 353 -18 106 -44 146 -183 73 -256 -43 -42 -126 -63 -261 -63 -63
0 -131 3 -150 7 l-35 7 3 -97 3 -98 182 0 c165 0 186 -2 229 -22 74 -34 99
-94 84 -198 -9 -57 -58 -116 -113 -134 -49 -16 -290 -26 -323 -13 -21 8 -38
44 -114 238 -49 126 -142 364 -207 530 l-119 300 -109 0 -108 0 -136 -340z
m347 285 c7 -14 98 -244 202 -511 104 -266 198 -495 209 -508 20 -23 27 -25
156 -27 190 -3 266 24 317 111 20 34 22 50 20 126 -3 81 -5 89 -33 119 -60 63
-100 74 -290 75 l-170 1 -3 62 -3 61 143 1 c182 2 177 1 240 33 70 35 91 66
96 141 10 164 -121 236 -401 222 -111 -5 -126 0 -215 75 l-33 28 245 0 c327 0
428 -22 508 -108 48 -53 63 -95 63 -182 0 -91 -18 -132 -87 -201 -26 -26 -48
-51 -48 -56 0 -4 29 -34 64 -68 70 -65 93 -108 102 -190 16 -134 -67 -290
-184 -346 -45 -22 -57 -22 -337 -23 l-290 0 -23 64 c-45 129 -53 148 -77 174
-16 17 -35 26 -54 26 -27 0 -32 5 -50 55 -26 70 -26 92 -1 100 49 16 46 33
-50 283 -50 130 -99 245 -109 255 -17 17 -18 17 -33 0 -8 -10 -49 -108 -91
-218 -104 -279 -102 -269 -81 -299 9 -15 23 -26 30 -26 19 0 18 -35 -4 -95
-16 -44 -22 -50 -49 -53 -47 -5 -72 -41 -113 -159 l-37 -108 -78 -3 c-43 -2
-84 -1 -91 2 -9 3 -1 37 31 123 24 65 76 206 115 313 40 107 119 312 177 454
57 142 109 269 113 282 8 21 14 22 100 22 88 0 91 -1 104 -27z"/>
</g>
</svg>
